<svg width="36" height="36" viewBox="0 0 36 36" fill="none" xmlns="http://www.w3.org/2000/svg">
<path d="M7.05708 0.0022583C3.17704 0.0022583 0.00219727 3.1771 0.00219727 7.05714V28.9519C0.00219727 32.832 3.17704 36.0068 7.05708 36.0068H28.9518C32.8319 36.0068 36.0067 32.832 36.0067 28.9519V7.05714C36.0067 3.1771 32.8319 0.0022583 28.9518 0.0022583H7.05708V0.0022583ZM11.0958 8.12587H18.198C19.673 8.12587 20.7933 8.17984 21.5538 8.29576C22.3143 8.40588 23.0287 8.64193 23.6925 9.00114C24.4108 9.38811 24.9503 9.90921 25.3057 10.5548C25.6611 11.2041 25.8412 11.9505 25.8412 12.7991C25.8412 13.7799 25.5965 14.6517 25.1032 15.417C24.6147 16.1823 23.9369 16.7451 23.0748 17.109V17.2136C24.3152 17.4771 25.31 18.0069 26.0561 18.8134C26.8034 19.6208 27.1766 20.7077 27.1766 22.0725C27.1766 23.0715 26.988 23.9527 26.6096 24.7084C26.2314 25.4641 25.7248 26.0868 25.0841 26.5849C24.3284 27.1788 23.4989 27.5978 22.59 27.8517C21.6868 28.1045 20.5395 28.2308 19.143 28.2308H11.0959V8.12591L11.0958 8.12587ZM16.119 11.8114V16.0661H16.7546C17.6166 16.0661 18.2257 16.0573 18.5715 16.0391C18.9172 16.021 19.2771 15.9284 19.6458 15.7579C20.0462 15.5692 20.3282 15.3072 20.4795 14.9749C20.6317 14.6387 20.7101 14.2504 20.7101 13.8128C20.7101 13.4862 20.627 13.1536 20.4603 12.8126C20.2946 12.4717 20.0372 12.2224 19.6818 12.0701C19.3504 11.9227 18.9585 11.8449 18.5017 11.8305C18.0458 11.8161 17.3683 11.8114 16.4699 11.8114H16.1189L16.119 11.8114ZM16.119 19.5098V24.543H16.3912C17.7053 24.543 18.613 24.5331 19.1148 24.5149C19.6167 24.4968 20.1338 24.3776 20.6538 24.1515C21.1155 23.9533 21.447 23.6628 21.6596 23.2796C21.8713 22.8975 21.9769 22.464 21.9769 21.9803C21.9769 21.3577 21.8538 20.8739 21.6 20.5234C21.3471 20.169 20.9688 19.9058 20.466 19.7258C20.1614 19.606 19.7371 19.5411 19.2026 19.5278C18.6682 19.5144 17.9499 19.5098 17.0505 19.5098H16.119H16.119Z" fill="black"/>
</svg>
