<svg width="34" height="34" viewBox="0 0 34 34" fill="none" xmlns="http://www.w3.org/2000/svg">
<path d="M29.6 0.799988H4.40005C2.42005 0.799988 0.800049 2.41999 0.800049 4.39999V29.6C0.800049 31.5818 2.42005 33.2 4.40005 33.2H29.6C31.58 33.2 33.2 31.5818 33.2 29.6V4.39999C33.2 2.41999 31.58 0.799988 29.6 0.799988ZM16.9712 26.9414C19.6152 26.9409 22.1507 25.8903 24.0201 24.0205C25.8895 22.1508 26.9396 19.6151 26.9396 16.9712C26.9396 16.3628 26.8622 15.776 26.7542 15.2H29.6V28.1888C29.6 28.3523 29.5677 28.5143 29.505 28.6653C29.4422 28.8164 29.3503 28.9535 29.2344 29.0689C29.1185 29.1843 28.9809 29.2757 28.8296 29.3378C28.6783 29.3999 28.5162 29.4315 28.3526 29.4308H5.64745C5.48389 29.4315 5.32181 29.3999 5.1705 29.3378C5.01919 29.2757 4.88163 29.1843 4.76573 29.0689C4.64983 28.9535 4.55786 28.8164 4.4951 28.6653C4.43235 28.5143 4.40005 28.3523 4.40005 28.1888V15.2H7.18825C7.07845 15.776 7.00105 16.3628 7.00105 16.9712C7.00153 19.6153 8.05211 22.151 9.92178 24.0207C11.7915 25.8903 14.3271 26.9409 16.9712 26.9414V26.9414ZM10.7414 16.9712C10.7414 16.1531 10.9026 15.343 11.2157 14.5871C11.5287 13.8313 11.9876 13.1445 12.5661 12.5661C13.1446 11.9876 13.8314 11.5287 14.5872 11.2156C15.343 10.9025 16.1531 10.7414 16.9712 10.7414C17.7894 10.7414 18.5995 10.9025 19.3553 11.2156C20.1111 11.5287 20.7979 11.9876 21.3764 12.5661C21.9549 13.1445 22.4138 13.8313 22.7268 14.5871C23.0399 15.343 23.201 16.1531 23.201 16.9712C23.201 18.6234 22.5447 20.208 21.3764 21.3763C20.2081 22.5446 18.6235 23.201 16.9712 23.201C15.319 23.201 13.7344 22.5446 12.5661 21.3763C11.3978 20.208 10.7414 18.6234 10.7414 16.9712V16.9712ZM28.3526 9.79999H25.4456C25.1156 9.79904 24.7993 9.6675 24.5659 9.43411C24.3325 9.20072 24.201 8.88445 24.2 8.55439V5.64379C24.2 4.95619 24.758 4.39999 25.4438 4.39999H28.3508C29.042 4.39999 29.6 4.95619 29.6 5.64379V8.55259C29.6 9.23839 29.042 9.79999 28.3526 9.79999Z" fill="black"/>
</svg>
